<svg width="210" height="52" viewBox="0 0 210 52" xmlns="http://www.w3.org/2000/svg">
<g fill="none" fill-rule="evenodd">
<path fill="#FFF" d="M158 0h52v52h-52z"/>
<path d="M201.41 26.207c.705.526 1.44.897 1.44 1.733 0 .248-.307.495-.98.495-.521 0-1.073-.155-1.348-.526-.215-.278.091-.68-.092-.96-.154-.247-.46-.123-.674-.247-.245-.155-.276-.247-.46-.619-.184-.433-.827-1.145-1.593-1.919-.643-.65-1.317-.99-1.624-.959-.214.031-.275.031-.49.031-.551 0-1.01.526-1.807.867-.552.247-.858.37-1.195.433l-.123.155.705-.031c.674 0 1.532-.093 2.206-.093.674 0 1.01.619 1.286 1.269.521 1.3 1.287 3.187 2.237 4.766.46.742.827 1.207.827 2.135 0 .279-.03.68-.398.68-.521 0-1.838-.556-1.838-1.144 0-.464.367-.65.367-1.114 0-.279-.429-.248-.52-.496-.338-1.392-.736-2.785-1.502-3.62-.398-.434-.46-.62-.857-.62-.215 0-.43.063-.613.124-1.072.403-2.512 1.64-4.32 2.167-.674.216-.796-.186-1.5-.062h.06c-.582.124-1.01.464-1.807.68-1.072.31-2.941.465-4.442.248-1.072-.154-2.451-.371-3.033-.34-.46 1.3-1.41 3.033-2.85 3.714-.765.34-.98.804-.765 1.67.276 1.084 1.225 1.858 1.716 2.786.46.774 1.194 2.043 1.96 2.445.766.402 1.256.99 1.256 1.516 0 .248-.092.372-.337.372h-1.562c-.245 0-.368-.155-.398-.248-.215-.402-.062-.773-.368-1.145-.214-.247-.368-.186-.643-.402-.46-.464-.123-.712-.46-1.3-.98-1.578-1.41-1.95-2.236-3.095-.46-.588-1.042-.897-1.042-1.67 0-.96.95-1.115.92-2.074-.614.464-1.318.804-2.421.959-.153.03-.52.31-.674.495-.368.371-.52.774-.582 1.33-.123 1.3-.368 2.6-.214 3.9.214.836.367 1.114 1.041 1.579.429.278.92.68.98 1.3 0 .154-.06.37-.275.37h-1.685c-.153 0-.307-.123-.368-.216-.184-.34-.061-.557-.153-.96-.153-.773-1.042-.742-1.042-1.547 0-.247.154-.557.154-1.052.06-1.083.367-2.878.06-5.013-.152-1.238 1.134-1.3 1.808-2.383.399-.62.276-.372.521-.805.245-.464.184-.805.153-1.083 0-.372-.367-1.114-.122-2.662.092-.68.429-1.392.888-1.98 0-.031 0-.124-.153-.124-.674.062-.674-.124-1.103-.124-.429 0-.766.371-.827.557-.214-.093-.306-.34-.306-.464 0-.248.06-.464.275-.68.092-.094 0-.156-.122-.156-.521 0-1.011.65-1.134 1.083-.306-.061-.337-.464-.46-.464-.152 0-.244.217-.244.434 0 1.516 2.45 1.856 2.45 3.868 0 2.321-2.757 1.826-2.757 2.662 0 .154.123.309.337.402-.092.216-.337.31-.582.31-.612 0-1.072-.465-1.072-1.084 0-1.269 1.685-1.3 1.685-2.259 0-.464-.276-.588-.551-.805-1.593-1.145-2.513-2.29-2.513-4.178 0-2.042 1.41-3.59 3.217-3.59 2.635 0 2.727 3.095 5.116 3.343.889-.62 1.96-.99 3.002-.99 1.563 0 2.237.402 3.891.402.674 0 1.777-.186 3.094-1.114.49-.34.705-.403 1.164-.805 1.042-.897 2.022-2.662 2.022-3.93v.062c0-.403-.092-.65-.275-.65-.552 0-1.073.526-1.624 1.083-.368.371.184.557-.613.99-.275.155-.612-.124-.919-.124-.643 0-.919-.773-.919-1.423 0-.34.245-.434.398-.743.337-.65.307-.897.613-1.516.184-.434.52-.712.49-1.022 0-.124-.092-.185-.092-.31 0-.65.858-1.082.858-1.732 0-.372-.398-.526-.49-.805-.092-.278-.03-.371-.03-.371.03-.062.06-.062.122-.062.337 0 .46.371.766.557.03-.433-.123-.526-.123-.836 0-.154-.03-.433.153-.433.215 0 .184.279.368.433.245.186.46.155.705.34.337.217.52.589.643.589.337.062.429-.372.245-.588.368-.031.766.278 1.256.278.766 0 1.042.217 1.195.34.49.434.582.774 1.133.774.276 0 .43-.247.49-.34.368.278.399.99 0 1.61.154.494.858.556 1.195.804.337.247.276.371.521.495a.408.408 0 0 0 .49 0c.153.68-.398 1.269-1.103 1.362.031.866.92 1.392 1.318 1.609-.245.526-.674.68-1.042.774.123.526.674 1.3.398 1.98-.245-.123-.643 0-.643.372 0 .433.552.65-.03.96-.246.154-.307.525.153.897.612-.155 1.194-.155 1.899-.155.429 0 .98-.124 1.379-.124.704 0 1.133.279 1.654.867 1.317 1.392 2.512 2.909 3.86 3.93" fill="#231F20" fill-rule="nonzero"/>
<path d="M166.333 22.4c.275 0 .796-1.578 1.868-1.578.307 0 .368.124.368.248 0 .216-.368.402-.368.68 0 .062.031.124.123.124.245 0 .46-.588 1.501-.588.276 0 .52.031.766.093.122.031.368.155.245-.186-.245-.742-1.072-1.423-2.206-1.423-1.133 0-2.328 1.021-2.45 2.259.03.217.03.371.153.371" fill="#6D6E70" fill-rule="nonzero"/>
<path d="M185.94 12.559c-.307-.124-.368-.279-.246-.68.061-.403.092-.589-.092-.62-.153-.062-.367.062-.582.279-.184.247-.49.588-.582.835-.092.34.306.279.03.836-.49.897-.612 1.114-.857 1.733-.215.68-.368.774-.49.99-.153.186.184.217.551.093.398-.155.429.34.276.681-.123.248-.03.34.306.062.307-.248-.153-.433-.061-1.207.122-.68.245-1.083.674-1.764.368-.588.674-1.021 1.287-.805.245.124.122-.278-.215-.433" fill="#6D6E70" fill-rule="nonzero"/>
<path d="M199.082 32.83c.122 0 .153-.155.153-.31 0-.34-.184-.835-.46-1.052-.061.495-.306.836-.306 1.052 0 .155.46.31.613.31" fill="#6D6E70" fill-rule="nonzero"/>
<path d="M202.023 28.033c.183 0 .46-.062.46-.217 0-.278-.43-.773-.797-.897.245.495 0 1.114.337 1.114" fill="#6D6E70" fill-rule="nonzero"/>
<path d="M189.033 21.503c2.666 1.238 2.512 3.497 2.727 2.94a2.38 2.38 0 0 0-.49-2.445c-.736-.866-1.011-.65-.736-1.362 1.165-2.847 1.9-7.149-1.593-8.634-.398-.155-.735-.155-.735-.093s.368.186.827.495c2.329 1.548 1.593 5.788-.52 7.83-.674.712-.337.867.52 1.269" fill="#6D6E70" fill-rule="nonzero"/>
<path d="M179.904 41.31c.184 0 .092-.279.03-.403-.153-.278-.459-.464-.735-.588.062.279.092.99.368.99h.337" fill="#6D6E70" fill-rule="nonzero"/>
<path d="M171.847 41.31c.184 0 .061-.279-.03-.403-.154-.278-.49-.464-.767-.588.062.279.123.99.399.99h.398" fill="#6D6E70" fill-rule="nonzero"/>
<path d="M181.62 25.124c1.47-.155 1.715-.495 1.96-1.61.123-.526.49-1.083.827-1.423.215-.248.43-.433.644-.774.061-.155.122-.247 0-.216-.153.123-.674.464-.889.619-1.041.742-2.634 1.083-3.247 1.083-1.348 0-2.512-.403-3.738-.403-3.676 0-5.054 2.91-4.87 4.612.03.278.06.278.153.278.245 0 .49-.99 1.409-1.888 1.348-1.3 2.818-2.042 4.901-2.042 1.502 0 2.145.495 2.145.68 0 .372-.643.403-.582.774-.03.155.306.434 1.287.31" fill="#6D6E70" fill-rule="nonzero"/>
<g fill="#FFF">
<path d="M133.507 26.22l6.87-7.064h-3.504l-6.18 6.62h-.061l-.004-6.62h-2.589l.001 14.737h2.592v-7.15h.06l6.586 7.15h3.678z"/>
<path d="M124.915 19.156h-2.612l.003 10.632h-.041l-6.257-10.632h-3.393v14.737h2.535V22.917h.04l6.4 10.976h3.324z"/>
<path d="M103.69 28.516a11.986 11.986 0 0 1-2.283-.202l2.282-5.825 2.283 5.825c-.77.149-1.49.198-2.283.202m0 2.244c1.081-.005 2.159-.105 3.098-.363l1.37 3.496h3.067l-6.4-14.737h-2.27l-6.4 14.737h3.067l1.37-3.496c.94.258 2.018.358 3.098.363"/>
<path d="M92.547 26.129v-.042c1.573-.467 2.575-1.565 2.575-3.292 0-2.602-2.31-3.639-4.538-3.639h-5.786v14.737h5.356c2.78.001 5.602-1.138 5.602-4.187 0-2.073-1.288-3.313-3.21-3.577zm-5.112-4.758h2.126c1.983 0 2.924.468 2.924 1.769 0 1.281-.941 2.013-2.699 2.013h-2.351V21.37zm2.371 10.307h-2.371v-4.29h2.474c2.106 0 3.21.55 3.21 2.054 0 1.972-1.902 2.236-3.313 2.236z"/>
<path d="M71.723 25.193c-1.368-.427-2.14-.67-2.649-.996-.507-.325-.662-.691-.662-1.098 0-.61.354-1.016.861-1.26s1.235-.345 1.832-.345c.949 0 2.09.221 3.237.595l.933-2.14c-1.126-.57-2.67-.915-4.126-.915-1.479 0-2.803.366-3.75.996-1.127.752-1.722 1.83-1.722 3.172 0 2.52 2.14 3.516 4.258 4.187.883.285 1.788.528 2.405.894.596.346.95.813.95 1.444 0 .69-.442 1.178-.861 1.423-.508.304-1.346.446-2.207.446-1.986 0-3.399-.752-4.39-1.463l-.987 2.252c1.257.942 3.39 1.671 5.531 1.671 3.244 0 5.738-1.707 5.738-4.472 0-2.48-2.009-3.639-4.391-4.391"/>
<path d="M56.148 19.156h-4.437v14.737h4.723c4.375.001 7.605-3.069 7.605-7.48 0-4.33-3.087-7.257-7.891-7.257m.286 12.155H54.39v-9.573h1.779c3.086 0 5.07 1.687 5.07 4.696 0 2.865-1.8 4.877-4.805 4.877"/>
<path d="M43.014 26.432c1.658-2.393 2.87-4.362 3.882-7.275h3.114c-1.457 3.676-3.175 6.551-5.601 9.868v4.868h-2.79v-4.868c-2.427-3.317-4.145-6.192-5.601-9.868h3.114c1.01 2.913 2.224 4.882 3.882 7.275"/>
<path d="M28.68 19c-4.531 0-7.538 3.353-7.538 7.555 0 4.141 2.925 7.495 7.476 7.495 4.531 0 7.518-3.354 7.518-7.556 0-4.161-2.946-7.494-7.457-7.494m-.04 12.523c-3.007 0-4.734-2.2-4.734-5.008 0-2.788 1.727-4.99 4.713-4.99 3.028 0 4.754 2.262 4.754 5.03 0 2.767-1.726 4.968-4.733 4.968"/>
<path d="M11.44 33.893h8.328l.906-2.622H14.16V19.157h-2.72z"/>
<path d="M0 33.893h8.327l.907-2.622H2.719V19.157H0z"/>
</g>
</g>
</svg>